G04*
G04 #@! TF.GenerationSoftware,Altium Limited,Altium Designer,24.1.2 (44)*
G04*
G04 Layer_Color=65535*
%FSLAX25Y25*%
%MOIN*%
G70*
G04*
G04 #@! TF.SameCoordinates,70FD0B9D-AE47-40E7-AF1A-83360670B04A*
G04*
G04*
G04 #@! TF.FilePolarity,Positive*
G04*
G01*
G75*
%ADD10C,0.00787*%
%ADD11C,0.01000*%
D10*
X53760Y381936D02*
X53737Y382933D01*
X53666Y383927D01*
X53550Y384917D01*
X53387Y385900D01*
X53178Y386875D01*
X52924Y387839D01*
X52625Y388790D01*
X52281Y389725D01*
X51895Y390644D01*
X51465Y391544D01*
X50994Y392422D01*
X50482Y393277D01*
X49931Y394108D01*
X49341Y394911D01*
X48715Y395687D01*
X48052Y396431D01*
X47356Y397145D01*
X46627Y397824D01*
X45866Y398469D01*
X45077Y399077D01*
X44260Y399648D01*
X43416Y400179D01*
X42549Y400671D01*
X41660Y401122D01*
X40751Y401530D01*
X39823Y401895D01*
X38880Y402216D01*
X37922Y402493D01*
X36953Y402725D01*
X35973Y402911D01*
X34986Y403050D01*
X33994Y403144D01*
X32998Y403190D01*
X32002D01*
X31006Y403144D01*
X30013Y403050D01*
X29027Y402911D01*
X28047Y402725D01*
X27078Y402493D01*
X26120Y402216D01*
X25177Y401895D01*
X24249Y401530D01*
X23340Y401122D01*
X22451Y400671D01*
X21584Y400179D01*
X20741Y399648D01*
X19923Y399077D01*
X19134Y398469D01*
X18373Y397824D01*
X17644Y397145D01*
X16948Y396431D01*
X16285Y395687D01*
X15659Y394911D01*
X15069Y394108D01*
X14518Y393277D01*
X14006Y392422D01*
X13535Y391544D01*
X13105Y390644D01*
X12718Y389725D01*
X12375Y388790D01*
X12076Y387839D01*
X11822Y386875D01*
X11613Y385900D01*
X11450Y384917D01*
X11334Y383927D01*
X11264Y382933D01*
X11240Y381936D01*
X11264Y380940D01*
X11334Y379945D01*
X11450Y378956D01*
X11613Y377972D01*
X11822Y376997D01*
X12076Y376034D01*
X12375Y375083D01*
X12719Y374147D01*
X13105Y373229D01*
X13535Y372329D01*
X14006Y371451D01*
X14518Y370595D01*
X15069Y369765D01*
X15659Y368961D01*
X16285Y368186D01*
X16948Y367441D01*
X17644Y366728D01*
X18373Y366049D01*
X19134Y365404D01*
X19923Y364795D01*
X20741Y364225D01*
X21584Y363693D01*
X22451Y363201D01*
X23340Y362751D01*
X24249Y362343D01*
X25177Y361978D01*
X26120Y361656D01*
X27078Y361380D01*
X28047Y361148D01*
X29027Y360962D01*
X30014Y360822D01*
X31006Y360729D01*
X32002Y360682D01*
X32998D01*
X33994Y360729D01*
X34986Y360822D01*
X35973Y360962D01*
X36953Y361148D01*
X37922Y361380D01*
X38880Y361656D01*
X39823Y361978D01*
X40751Y362343D01*
X41660Y362751D01*
X42549Y363201D01*
X43416Y363693D01*
X44259Y364225D01*
X45077Y364795D01*
X45866Y365404D01*
X46626Y366049D01*
X47356Y366728D01*
X48052Y367441D01*
X48715Y368186D01*
X49341Y368961D01*
X49931Y369765D01*
X50482Y370595D01*
X50994Y371450D01*
X51465Y372329D01*
X51895Y373228D01*
X52281Y374147D01*
X52625Y375083D01*
X52924Y376034D01*
X53178Y376997D01*
X53387Y377972D01*
X53550Y378956D01*
X53666Y379945D01*
X53737Y380940D01*
X53760Y381936D01*
Y442500D02*
X53737Y443497D01*
X53666Y444491D01*
X53550Y445481D01*
X53387Y446464D01*
X53178Y447439D01*
X52924Y448403D01*
X52625Y449353D01*
X52281Y450289D01*
X51895Y451208D01*
X51465Y452107D01*
X50994Y452986D01*
X50482Y453841D01*
X49931Y454671D01*
X49341Y455475D01*
X48715Y456250D01*
X48052Y456995D01*
X47356Y457708D01*
X46627Y458388D01*
X45866Y459032D01*
X45077Y459641D01*
X44260Y460211D01*
X43416Y460743D01*
X42549Y461235D01*
X41660Y461685D01*
X40751Y462093D01*
X39823Y462459D01*
X38880Y462780D01*
X37922Y463057D01*
X36953Y463288D01*
X35973Y463474D01*
X34986Y463614D01*
X33994Y463707D01*
X32998Y463754D01*
X32002D01*
X31006Y463707D01*
X30013Y463614D01*
X29027Y463474D01*
X28047Y463288D01*
X27078Y463057D01*
X26120Y462780D01*
X25177Y462459D01*
X24249Y462093D01*
X23340Y461685D01*
X22451Y461235D01*
X21584Y460743D01*
X20741Y460211D01*
X19923Y459641D01*
X19134Y459032D01*
X18373Y458388D01*
X17644Y457708D01*
X16948Y456995D01*
X16285Y456250D01*
X15659Y455475D01*
X15069Y454671D01*
X14518Y453841D01*
X14006Y452986D01*
X13535Y452107D01*
X13105Y451208D01*
X12718Y450289D01*
X12375Y449353D01*
X12076Y448403D01*
X11822Y447439D01*
X11613Y446464D01*
X11450Y445481D01*
X11334Y444491D01*
X11264Y443497D01*
X11240Y442500D01*
X11264Y441503D01*
X11334Y440509D01*
X11450Y439519D01*
X11613Y438536D01*
X11822Y437561D01*
X12076Y436597D01*
X12375Y435647D01*
X12719Y434711D01*
X13105Y433792D01*
X13535Y432893D01*
X14006Y432014D01*
X14518Y431159D01*
X15069Y430329D01*
X15659Y429525D01*
X16285Y428750D01*
X16948Y428005D01*
X17644Y427292D01*
X18373Y426612D01*
X19134Y425968D01*
X19923Y425359D01*
X20741Y424789D01*
X21584Y424257D01*
X22451Y423765D01*
X23340Y423315D01*
X24249Y422906D01*
X25177Y422541D01*
X26120Y422220D01*
X27078Y421943D01*
X28047Y421712D01*
X29027Y421526D01*
X30014Y421386D01*
X31006Y421293D01*
X32002Y421246D01*
X32998D01*
X33994Y421293D01*
X34986Y421386D01*
X35973Y421526D01*
X36953Y421712D01*
X37922Y421943D01*
X38880Y422220D01*
X39823Y422541D01*
X40751Y422906D01*
X41660Y423315D01*
X42549Y423765D01*
X43416Y424257D01*
X44259Y424789D01*
X45077Y425359D01*
X45866Y425968D01*
X46626Y426612D01*
X47356Y427292D01*
X48052Y428005D01*
X48715Y428750D01*
X49341Y429525D01*
X49931Y430329D01*
X50482Y431159D01*
X50994Y432014D01*
X51465Y432893D01*
X51895Y433792D01*
X52281Y434711D01*
X52625Y435646D01*
X52924Y436597D01*
X53178Y437561D01*
X53387Y438536D01*
X53550Y439519D01*
X53666Y440509D01*
X53737Y441503D01*
X53760Y442500D01*
X1457Y338216D02*
X58543D01*
X1457Y302783D02*
Y338216D01*
X58543Y329555D02*
Y338216D01*
Y302783D02*
Y311445D01*
X1457Y302783D02*
X34134D01*
X52244D02*
X58543D01*
D11*
X33500Y349498D02*
Y345499D01*
X35499Y343500D01*
X37499Y345499D01*
Y349498D01*
X43497D02*
Y343500D01*
X40498D01*
X39498Y344500D01*
Y346499D01*
X40498Y347499D01*
X43497D01*
X49495Y349498D02*
Y343500D01*
X46496D01*
X45496Y344500D01*
Y346499D01*
X46496Y347499D01*
X49495D01*
X57492Y346499D02*
X61491D01*
X73487Y349498D02*
X69488D01*
Y346499D01*
X71488Y347499D01*
X72487D01*
X73487Y346499D01*
Y344500D01*
X72487Y343500D01*
X70488D01*
X69488Y344500D01*
X75486Y349498D02*
Y345499D01*
X77486Y343500D01*
X79485Y345499D01*
Y349498D01*
X11490Y347996D02*
X9491Y347989D01*
X10490Y347992D01*
X10508Y342994D01*
X9511Y341991D01*
X8512Y341987D01*
X7508Y342984D01*
X13493Y347003D02*
X14489Y348006D01*
X16488Y348013D01*
X17492Y347016D01*
X17495Y346017D01*
X16499Y345014D01*
X15499Y345010D01*
X16499Y345014D01*
X17502Y344017D01*
X17505Y343018D01*
X16509Y342015D01*
X14510Y342008D01*
X13507Y343004D01*
X37499Y413498D02*
X36499Y414498D01*
X34500D01*
X33500Y413498D01*
Y409500D01*
X34500Y408500D01*
X36499D01*
X37499Y409500D01*
Y411499D01*
X35499D01*
X39498Y408500D02*
Y412499D01*
X42497D01*
X43497Y411499D01*
Y408500D01*
X49495Y414498D02*
Y408500D01*
X46496D01*
X45496Y409500D01*
Y411499D01*
X46496Y412499D01*
X49495D01*
X33500Y474498D02*
Y470499D01*
X35499Y468500D01*
X37499Y470499D01*
Y474498D01*
X43497D02*
Y468500D01*
X40498D01*
X39498Y469500D01*
Y471499D01*
X40498Y472499D01*
X43497D01*
X49495Y474498D02*
Y468500D01*
X46496D01*
X45496Y469500D01*
Y471499D01*
X46496Y472499D01*
X49495D01*
X57492Y471499D02*
X61491D01*
X73487Y473498D02*
X72487Y474498D01*
X70488D01*
X69488Y473498D01*
Y469500D01*
X70488Y468500D01*
X72487D01*
X73487Y469500D01*
X76486Y468500D02*
X78486D01*
X79485Y469500D01*
Y471499D01*
X78486Y472499D01*
X76486D01*
X75486Y471499D01*
Y469500D01*
X76486Y468500D01*
X81485Y472499D02*
Y468500D01*
Y470499D01*
X82484Y471499D01*
X83484Y472499D01*
X84483D01*
X90482Y468500D02*
X88482D01*
X87483Y469500D01*
Y471499D01*
X88482Y472499D01*
X90482D01*
X91481Y471499D01*
Y470499D01*
X87483D01*
X11500Y410499D02*
X9501D01*
X10501D01*
Y405501D01*
X9501Y404501D01*
X8501D01*
X7502Y405501D01*
X17498Y404501D02*
X13500D01*
X17498Y408500D01*
Y409499D01*
X16499Y410499D01*
X14499D01*
X13500Y409499D01*
X12500Y470499D02*
X10501D01*
X11500D01*
Y465501D01*
X10501Y464501D01*
X9501D01*
X8501Y465501D01*
X14499Y464501D02*
X16499D01*
X15499D01*
Y470499D01*
X14499Y469499D01*
M02*
